<svg width="24" height="24" viewBox="0 0 24 24" fill="none" xmlns="http://www.w3.org/2000/svg">
<g id="close">
<path id="close_2" d="M5.96581 4.61077C5.59156 4.23652 4.98478 4.23652 4.61052 4.61077C4.23627 4.98502 4.23627 5.5918 4.61052 5.96606L10.1446 11.5002L4.61058 17.0342C4.23633 17.4085 4.23633 18.0153 4.61058 18.3895C4.98483 18.7638 5.59162 18.7638 5.96587 18.3895L11.4999 12.8555L17.034 18.3895C17.4082 18.7638 18.015 18.7638 18.3893 18.3895C18.7635 18.0153 18.7635 17.4085 18.3893 17.0342L12.8552 11.5002L18.3893 5.96606C18.7636 5.5918 18.7636 4.98502 18.3893 4.61077C18.0151 4.23652 17.4083 4.23652 17.0341 4.61077L11.4999 10.1449L5.96581 4.61077Z" fill="#570573"/>
</g>
</svg>
